<svg xmlns="http://www.w3.org/2000/svg" xmlns:xlink="http://www.w3.org/1999/xlink" width="500" zoomAndPan="magnify" viewBox="0 0 375 225" height="300" preserveAspectRatio="xMidYMid meet" version="1.0"><defs><clipPath id="7d743173e6"><path d="M 101 106 L 279 106 L 279 214 L 101 214 Z M 101 106 " clip-rule="nonzero"/></clipPath><clipPath id="98f58e1cc0"><path d="M 190.15625 99.226562 L 290.390625 199.457031 L 189.625 300.21875 L 89.394531 199.988281 Z M 190.15625 99.226562 " clip-rule="nonzero"/></clipPath><clipPath id="932bde0bc2"><path d="M 190.15625 99.226562 L 290.390625 199.457031 L 189.625 300.21875 L 89.394531 199.988281 Z M 190.15625 99.226562 " clip-rule="nonzero"/></clipPath><clipPath id="ee7d69f33d"><path d="M 106.375 183.007812 L 177.453125 111.929688 C 184.460938 104.921875 195.816406 104.914062 202.816406 111.910156 L 273.433594 182.53125 C 284.710938 193.804688 276.730469 213.105469 260.773438 213.160156 L 119.078125 213.617188 C 103.078125 213.664062 95.050781 194.332031 106.375 183.007812 Z M 106.375 183.007812 " clip-rule="nonzero"/></clipPath><linearGradient x1="91.504442" gradientTransform="matrix(0.287281, 0.287281, 0.287733, -0.287733, 92.889702, 196.492461)" y1="-76.515403" x2="213.847599" gradientUnits="userSpaceOnUse" y2="523.058582" id="3a392af816"><stop stop-opacity="1" stop-color="rgb(20.799255%, 8.999634%, 0.799561%)" offset="0"/><stop stop-opacity="1" stop-color="rgb(20.799255%, 8.999634%, 0.799561%)" offset="0.125"/><stop stop-opacity="1" stop-color="rgb(20.799255%, 8.999634%, 0.799561%)" offset="0.169691"/><stop stop-opacity="1" stop-color="rgb(20.799255%, 8.999634%, 0.799561%)" offset="0.1875"/><stop stop-opacity="1" stop-color="rgb(20.99762%, 9.251404%, 0.982666%)" offset="0.191406"/><stop stop-opacity="1" stop-color="rgb(21.195984%, 9.503174%, 1.165771%)" offset="0.195312"/><stop stop-opacity="1" stop-color="rgb(21.395874%, 9.75647%, 1.350403%)" offset="0.199219"/><stop stop-opacity="1" stop-color="rgb(21.595764%, 10.011292%, 1.535034%)" offset="0.203125"/><stop stop-opacity="1" stop-color="rgb(21.795654%, 10.264587%, 1.719666%)" offset="0.207031"/><stop stop-opacity="1" stop-color="rgb(21.995544%, 10.519409%, 1.904297%)" offset="0.210938"/><stop stop-opacity="1" stop-color="rgb(22.195435%, 10.772705%, 2.088928%)" offset="0.214844"/><stop stop-opacity="1" stop-color="rgb(22.395325%, 11.027527%, 2.275085%)" offset="0.21875"/><stop stop-opacity="1" stop-color="rgb(22.595215%, 11.280823%, 2.459717%)" offset="0.222656"/><stop stop-opacity="1" stop-color="rgb(22.796631%, 11.535645%, 2.644348%)" offset="0.226562"/><stop stop-opacity="1" stop-color="rgb(22.996521%, 11.78894%, 2.828979%)" offset="0.230469"/><stop stop-opacity="1" stop-color="rgb(23.196411%, 12.043762%, 3.013611%)" offset="0.234375"/><stop stop-opacity="1" stop-color="rgb(23.396301%, 12.297058%, 3.198242%)" offset="0.238281"/><stop stop-opacity="1" stop-color="rgb(23.596191%, 12.55188%, 3.382874%)" offset="0.242188"/><stop stop-opacity="1" stop-color="rgb(23.796082%, 12.805176%, 3.567505%)" offset="0.246094"/><stop stop-opacity="1" stop-color="rgb(23.995972%, 13.059998%, 3.753662%)" offset="0.25"/><stop stop-opacity="1" stop-color="rgb(24.195862%, 13.313293%, 3.938293%)" offset="0.253906"/><stop stop-opacity="1" stop-color="rgb(24.395752%, 13.568115%, 4.122925%)" offset="0.257812"/><stop stop-opacity="1" stop-color="rgb(24.595642%, 13.821411%, 4.307556%)" offset="0.261719"/><stop stop-opacity="1" stop-color="rgb(24.797058%, 14.074707%, 4.492188%)" offset="0.265625"/><stop stop-opacity="1" stop-color="rgb(24.996948%, 14.328003%, 4.676819%)" offset="0.269531"/><stop stop-opacity="1" stop-color="rgb(25.196838%, 14.582825%, 4.86145%)" offset="0.273438"/><stop stop-opacity="1" stop-color="rgb(25.396729%, 14.836121%, 5.046082%)" offset="0.277344"/><stop stop-opacity="1" stop-color="rgb(25.596619%, 15.090942%, 5.232239%)" offset="0.28125"/><stop stop-opacity="1" stop-color="rgb(25.796509%, 15.344238%, 5.41687%)" offset="0.285156"/><stop stop-opacity="1" stop-color="rgb(25.996399%, 15.59906%, 5.601501%)" offset="0.289063"/><stop stop-opacity="1" stop-color="rgb(26.196289%, 15.852356%, 5.786133%)" offset="0.292969"/><stop stop-opacity="1" stop-color="rgb(26.396179%, 16.107178%, 5.970764%)" offset="0.296875"/><stop stop-opacity="1" stop-color="rgb(26.596069%, 16.360474%, 6.155396%)" offset="0.300781"/><stop stop-opacity="1" stop-color="rgb(26.795959%, 16.615295%, 6.340027%)" offset="0.304688"/><stop stop-opacity="1" stop-color="rgb(26.99585%, 16.868591%, 6.524658%)" offset="0.308594"/><stop stop-opacity="1" stop-color="rgb(27.197266%, 17.123413%, 6.710815%)" offset="0.3125"/><stop stop-opacity="1" stop-color="rgb(27.397156%, 17.376709%, 6.895447%)" offset="0.316406"/><stop stop-opacity="1" stop-color="rgb(27.597046%, 17.631531%, 7.080078%)" offset="0.320312"/><stop stop-opacity="1" stop-color="rgb(27.796936%, 17.884827%, 7.264709%)" offset="0.324219"/><stop stop-opacity="1" stop-color="rgb(27.996826%, 18.139648%, 7.449341%)" offset="0.328125"/><stop stop-opacity="1" stop-color="rgb(28.196716%, 18.392944%, 7.633972%)" offset="0.332031"/><stop stop-opacity="1" stop-color="rgb(28.396606%, 18.647766%, 7.818604%)" offset="0.335938"/><stop stop-opacity="1" stop-color="rgb(28.596497%, 18.901062%, 8.003235%)" offset="0.339844"/><stop stop-opacity="1" stop-color="rgb(28.796387%, 19.155884%, 8.189392%)" offset="0.34375"/><stop stop-opacity="1" stop-color="rgb(28.996277%, 19.40918%, 8.374023%)" offset="0.347656"/><stop stop-opacity="1" stop-color="rgb(29.197693%, 19.664001%, 8.558655%)" offset="0.351562"/><stop stop-opacity="1" stop-color="rgb(29.397583%, 19.917297%, 8.743286%)" offset="0.355469"/><stop stop-opacity="1" stop-color="rgb(29.597473%, 20.172119%, 8.927917%)" offset="0.359375"/><stop stop-opacity="1" stop-color="rgb(29.797363%, 20.425415%, 9.112549%)" offset="0.363281"/><stop stop-opacity="1" stop-color="rgb(29.997253%, 20.680237%, 9.29718%)" offset="0.367188"/><stop stop-opacity="1" stop-color="rgb(30.197144%, 20.933533%, 9.481812%)" offset="0.371094"/><stop stop-opacity="1" stop-color="rgb(30.397034%, 21.188354%, 9.667969%)" offset="0.375"/><stop stop-opacity="1" stop-color="rgb(30.596924%, 21.44165%, 9.8526%)" offset="0.378906"/><stop stop-opacity="1" stop-color="rgb(30.796814%, 21.696472%, 10.037231%)" offset="0.382812"/><stop stop-opacity="1" stop-color="rgb(30.996704%, 21.949768%, 10.221863%)" offset="0.386719"/><stop stop-opacity="1" stop-color="rgb(31.196594%, 22.20459%, 10.406494%)" offset="0.390625"/><stop stop-opacity="1" stop-color="rgb(31.396484%, 22.457886%, 10.591125%)" offset="0.394531"/><stop stop-opacity="1" stop-color="rgb(31.5979%, 22.712708%, 10.775757%)" offset="0.398438"/><stop stop-opacity="1" stop-color="rgb(31.797791%, 22.966003%, 10.960388%)" offset="0.402344"/><stop stop-opacity="1" stop-color="rgb(31.997681%, 23.220825%, 11.146545%)" offset="0.40625"/><stop stop-opacity="1" stop-color="rgb(32.197571%, 23.474121%, 11.331177%)" offset="0.410156"/><stop stop-opacity="1" stop-color="rgb(32.397461%, 23.728943%, 11.515808%)" offset="0.414063"/><stop stop-opacity="1" stop-color="rgb(32.597351%, 23.982239%, 11.700439%)" offset="0.417969"/><stop stop-opacity="1" stop-color="rgb(32.797241%, 24.237061%, 11.885071%)" offset="0.421875"/><stop stop-opacity="1" stop-color="rgb(32.997131%, 24.490356%, 12.069702%)" offset="0.425781"/><stop stop-opacity="1" stop-color="rgb(33.197021%, 24.745178%, 12.254333%)" offset="0.429688"/><stop stop-opacity="1" stop-color="rgb(33.396912%, 24.998474%, 12.438965%)" offset="0.433594"/><stop stop-opacity="1" stop-color="rgb(33.598328%, 25.253296%, 12.625122%)" offset="0.4375"/><stop stop-opacity="1" stop-color="rgb(33.798218%, 25.506592%, 12.809753%)" offset="0.441406"/><stop stop-opacity="1" stop-color="rgb(33.998108%, 25.761414%, 12.994385%)" offset="0.445312"/><stop stop-opacity="1" stop-color="rgb(34.197998%, 26.014709%, 13.179016%)" offset="0.449219"/><stop stop-opacity="1" stop-color="rgb(34.397888%, 26.269531%, 13.363647%)" offset="0.453125"/><stop stop-opacity="1" stop-color="rgb(34.597778%, 26.522827%, 13.548279%)" offset="0.457031"/><stop stop-opacity="1" stop-color="rgb(34.797668%, 26.777649%, 13.73291%)" offset="0.460938"/><stop stop-opacity="1" stop-color="rgb(34.997559%, 27.030945%, 13.917542%)" offset="0.464844"/><stop stop-opacity="1" stop-color="rgb(35.197449%, 27.285767%, 14.103699%)" offset="0.46875"/><stop stop-opacity="1" stop-color="rgb(35.397339%, 27.539062%, 14.28833%)" offset="0.472656"/><stop stop-opacity="1" stop-color="rgb(35.597229%, 27.792358%, 14.472961%)" offset="0.476562"/><stop stop-opacity="1" stop-color="rgb(35.797119%, 28.045654%, 14.657593%)" offset="0.480469"/><stop stop-opacity="1" stop-color="rgb(35.998535%, 28.300476%, 14.842224%)" offset="0.484375"/><stop stop-opacity="1" stop-color="rgb(36.198425%, 28.553772%, 15.026855%)" offset="0.488281"/><stop stop-opacity="1" stop-color="rgb(36.398315%, 28.808594%, 15.211487%)" offset="0.492187"/><stop stop-opacity="1" stop-color="rgb(36.598206%, 29.06189%, 15.396118%)" offset="0.496094"/><stop stop-opacity="1" stop-color="rgb(36.798096%, 29.316711%, 15.58075%)" offset="0.5"/><stop stop-opacity="1" stop-color="rgb(36.997986%, 29.570007%, 15.765381%)" offset="0.503906"/><stop stop-opacity="1" stop-color="rgb(37.197876%, 29.824829%, 15.951538%)" offset="0.507812"/><stop stop-opacity="1" stop-color="rgb(37.397766%, 30.078125%, 16.136169%)" offset="0.511719"/><stop stop-opacity="1" stop-color="rgb(37.597656%, 30.332947%, 16.320801%)" offset="0.515625"/><stop stop-opacity="1" stop-color="rgb(37.797546%, 30.586243%, 16.505432%)" offset="0.519531"/><stop stop-opacity="1" stop-color="rgb(37.998962%, 30.841064%, 16.690063%)" offset="0.523438"/><stop stop-opacity="1" stop-color="rgb(38.198853%, 31.09436%, 16.874695%)" offset="0.527344"/><stop stop-opacity="1" stop-color="rgb(38.398743%, 31.349182%, 17.059326%)" offset="0.53125"/><stop stop-opacity="1" stop-color="rgb(38.598633%, 31.602478%, 17.243958%)" offset="0.535156"/><stop stop-opacity="1" stop-color="rgb(38.798523%, 31.8573%, 17.430115%)" offset="0.539062"/><stop stop-opacity="1" stop-color="rgb(38.998413%, 32.110596%, 17.614746%)" offset="0.542969"/><stop stop-opacity="1" stop-color="rgb(39.198303%, 32.365417%, 17.799377%)" offset="0.546875"/><stop stop-opacity="1" stop-color="rgb(39.398193%, 32.618713%, 17.984009%)" offset="0.550781"/><stop stop-opacity="1" stop-color="rgb(39.598083%, 32.873535%, 18.16864%)" offset="0.554688"/><stop stop-opacity="1" stop-color="rgb(39.797974%, 33.126831%, 18.353271%)" offset="0.558594"/><stop stop-opacity="1" stop-color="rgb(39.997864%, 33.381653%, 18.537903%)" offset="0.5625"/><stop stop-opacity="1" stop-color="rgb(40.197754%, 33.634949%, 18.722534%)" offset="0.566406"/><stop stop-opacity="1" stop-color="rgb(40.39917%, 33.889771%, 18.908691%)" offset="0.570312"/><stop stop-opacity="1" stop-color="rgb(40.59906%, 34.143066%, 19.093323%)" offset="0.574219"/><stop stop-opacity="1" stop-color="rgb(40.79895%, 34.397888%, 19.277954%)" offset="0.578125"/><stop stop-opacity="1" stop-color="rgb(40.99884%, 34.651184%, 19.462585%)" offset="0.582031"/><stop stop-opacity="1" stop-color="rgb(41.19873%, 34.906006%, 19.647217%)" offset="0.585938"/><stop stop-opacity="1" stop-color="rgb(41.398621%, 35.159302%, 19.831848%)" offset="0.589844"/><stop stop-opacity="1" stop-color="rgb(41.598511%, 35.414124%, 20.016479%)" offset="0.59375"/><stop stop-opacity="1" stop-color="rgb(41.798401%, 35.667419%, 20.201111%)" offset="0.597656"/><stop stop-opacity="1" stop-color="rgb(41.998291%, 35.922241%, 20.387268%)" offset="0.601562"/><stop stop-opacity="1" stop-color="rgb(42.198181%, 36.175537%, 20.571899%)" offset="0.605469"/><stop stop-opacity="1" stop-color="rgb(42.399597%, 36.430359%, 20.756531%)" offset="0.609375"/><stop stop-opacity="1" stop-color="rgb(42.599487%, 36.683655%, 20.941162%)" offset="0.613281"/><stop stop-opacity="1" stop-color="rgb(42.799377%, 36.938477%, 21.125793%)" offset="0.617188"/><stop stop-opacity="1" stop-color="rgb(42.999268%, 37.191772%, 21.310425%)" offset="0.621094"/><stop stop-opacity="1" stop-color="rgb(43.199158%, 37.446594%, 21.495056%)" offset="0.625"/><stop stop-opacity="1" stop-color="rgb(43.399048%, 37.69989%, 21.679688%)" offset="0.628906"/><stop stop-opacity="1" stop-color="rgb(43.598938%, 37.954712%, 21.865845%)" offset="0.632812"/><stop stop-opacity="1" stop-color="rgb(43.798828%, 38.208008%, 22.050476%)" offset="0.636719"/><stop stop-opacity="1" stop-color="rgb(43.998718%, 38.46283%, 22.235107%)" offset="0.640625"/><stop stop-opacity="1" stop-color="rgb(44.198608%, 38.716125%, 22.419739%)" offset="0.644531"/><stop stop-opacity="1" stop-color="rgb(44.400024%, 38.970947%, 22.60437%)" offset="0.648438"/><stop stop-opacity="1" stop-color="rgb(44.599915%, 39.224243%, 22.789001%)" offset="0.652344"/><stop stop-opacity="1" stop-color="rgb(44.799805%, 39.479065%, 22.973633%)" offset="0.65625"/><stop stop-opacity="1" stop-color="rgb(44.999695%, 39.732361%, 23.158264%)" offset="0.660156"/><stop stop-opacity="1" stop-color="rgb(45.199585%, 39.987183%, 23.344421%)" offset="0.664062"/><stop stop-opacity="1" stop-color="rgb(45.399475%, 40.240479%, 23.529053%)" offset="0.667969"/><stop stop-opacity="1" stop-color="rgb(45.599365%, 40.4953%, 23.713684%)" offset="0.671875"/><stop stop-opacity="1" stop-color="rgb(45.799255%, 40.748596%, 23.898315%)" offset="0.675781"/><stop stop-opacity="1" stop-color="rgb(45.999146%, 41.001892%, 24.082947%)" offset="0.679687"/><stop stop-opacity="1" stop-color="rgb(46.199036%, 41.255188%, 24.267578%)" offset="0.683594"/><stop stop-opacity="1" stop-color="rgb(46.398926%, 41.51001%, 24.452209%)" offset="0.6875"/><stop stop-opacity="1" stop-color="rgb(46.598816%, 41.763306%, 24.636841%)" offset="0.691406"/><stop stop-opacity="1" stop-color="rgb(46.800232%, 42.018127%, 24.822998%)" offset="0.695312"/><stop stop-opacity="1" stop-color="rgb(46.949768%, 42.208862%, 24.960327%)" offset="0.703125"/><stop stop-opacity="1" stop-color="rgb(47.099304%, 42.399597%, 25.099182%)" offset="0.71875"/><stop stop-opacity="1" stop-color="rgb(47.099304%, 42.399597%, 25.099182%)" offset="0.75"/><stop stop-opacity="1" stop-color="rgb(47.099304%, 42.399597%, 25.099182%)" offset="0.830309"/><stop stop-opacity="1" stop-color="rgb(47.099304%, 42.399597%, 25.099182%)" offset="1"/></linearGradient><clipPath id="c8edb79bea"><path d="M 151 85 L 229 85 L 229 133 L 151 133 Z M 151 85 " clip-rule="nonzero"/></clipPath><clipPath id="2c9aac394f"><path d="M 189.859375 135.832031 L 146.371094 92.34375 L 190.390625 48.328125 L 233.875 91.8125 Z M 189.859375 135.832031 " clip-rule="nonzero"/></clipPath><clipPath id="33db4142b7"><path d="M 189.859375 135.832031 L 146.371094 92.34375 L 190.390625 48.328125 L 233.875 91.8125 Z M 189.859375 135.832031 " clip-rule="nonzero"/></clipPath><clipPath id="f549de4d5f"><path d="M 189.859375 135.832031 L 146.371094 92.34375 L 190.390625 48.328125 L 233.875 91.8125 Z M 189.859375 135.832031 " clip-rule="nonzero"/></clipPath><clipPath id="c92c6479e8"><path d="M 226.460938 99.230469 L 195.40625 130.28125 C 192.34375 133.34375 187.402344 133.367188 184.363281 130.332031 L 153.726562 99.691406 C 148.832031 94.800781 152.335938 86.382812 159.285156 86.335938 L 220.976562 85.921875 C 227.941406 85.878906 231.40625 94.285156 226.460938 99.230469 Z M 226.460938 99.230469 " clip-rule="nonzero"/></clipPath><linearGradient x1="91.490568" gradientTransform="matrix(-0.12464, -0.12464, -0.125707, 0.125707, 232.35146, 93.339164)" y1="-76.583393" x2="213.686965" gradientUnits="userSpaceOnUse" y2="522.271351" id="9e94ee0088"><stop stop-opacity="1" stop-color="rgb(94.898987%, 47.499084%, 19.599915%)" offset="0"/><stop stop-opacity="1" stop-color="rgb(94.898987%, 47.499084%, 19.599915%)" offset="0.125"/><stop stop-opacity="1" stop-color="rgb(94.898987%, 47.499084%, 19.599915%)" offset="0.170672"/><stop stop-opacity="1" stop-color="rgb(94.898987%, 47.499084%, 19.599915%)" offset="0.1875"/><stop stop-opacity="1" stop-color="rgb(94.869995%, 47.676086%, 19.616699%)" offset="0.195312"/><stop stop-opacity="1" stop-color="rgb(94.813538%, 48.042297%, 19.651794%)" offset="0.203125"/><stop stop-opacity="1" stop-color="rgb(94.754028%, 48.417664%, 19.688416%)" offset="0.210938"/><stop stop-opacity="1" stop-color="rgb(94.694519%, 48.79303%, 19.725037%)" offset="0.21875"/><stop stop-opacity="1" stop-color="rgb(94.63501%, 49.168396%, 19.761658%)" offset="0.226563"/><stop stop-opacity="1" stop-color="rgb(94.5755%, 49.543762%, 19.798279%)" offset="0.234375"/><stop stop-opacity="1" stop-color="rgb(94.515991%, 49.919128%, 19.8349%)" offset="0.242188"/><stop stop-opacity="1" stop-color="rgb(94.458008%, 50.294495%, 19.869995%)" offset="0.25"/><stop stop-opacity="1" stop-color="rgb(94.398499%, 50.669861%, 19.906616%)" offset="0.257812"/><stop stop-opacity="1" stop-color="rgb(94.338989%, 51.045227%, 19.943237%)" offset="0.265625"/><stop stop-opacity="1" stop-color="rgb(94.27948%, 51.420593%, 19.979858%)" offset="0.273438"/><stop stop-opacity="1" stop-color="rgb(94.219971%, 51.795959%, 20.016479%)" offset="0.28125"/><stop stop-opacity="1" stop-color="rgb(94.160461%, 52.1698%, 20.053101%)" offset="0.289062"/><stop stop-opacity="1" stop-color="rgb(94.102478%, 52.545166%, 20.089722%)" offset="0.296875"/><stop stop-opacity="1" stop-color="rgb(94.042969%, 52.920532%, 20.126343%)" offset="0.304688"/><stop stop-opacity="1" stop-color="rgb(93.983459%, 53.295898%, 20.162964%)" offset="0.3125"/><stop stop-opacity="1" stop-color="rgb(93.92395%, 53.671265%, 20.199585%)" offset="0.320312"/><stop stop-opacity="1" stop-color="rgb(93.864441%, 54.046631%, 20.23468%)" offset="0.328125"/><stop stop-opacity="1" stop-color="rgb(93.804932%, 54.421997%, 20.271301%)" offset="0.335938"/><stop stop-opacity="1" stop-color="rgb(93.746948%, 54.797363%, 20.307922%)" offset="0.34375"/><stop stop-opacity="1" stop-color="rgb(93.687439%, 55.172729%, 20.344543%)" offset="0.351562"/><stop stop-opacity="1" stop-color="rgb(93.62793%, 55.548096%, 20.381165%)" offset="0.359375"/><stop stop-opacity="1" stop-color="rgb(93.56842%, 55.923462%, 20.417786%)" offset="0.367188"/><stop stop-opacity="1" stop-color="rgb(93.508911%, 56.298828%, 20.454407%)" offset="0.375"/><stop stop-opacity="1" stop-color="rgb(93.449402%, 56.674194%, 20.491028%)" offset="0.382813"/><stop stop-opacity="1" stop-color="rgb(93.391418%, 57.049561%, 20.527649%)" offset="0.390625"/><stop stop-opacity="1" stop-color="rgb(93.331909%, 57.424927%, 20.56427%)" offset="0.398438"/><stop stop-opacity="1" stop-color="rgb(93.2724%, 57.800293%, 20.599365%)" offset="0.40625"/><stop stop-opacity="1" stop-color="rgb(93.212891%, 58.174133%, 20.635986%)" offset="0.414063"/><stop stop-opacity="1" stop-color="rgb(93.153381%, 58.5495%, 20.672607%)" offset="0.421875"/><stop stop-opacity="1" stop-color="rgb(93.093872%, 58.924866%, 20.709229%)" offset="0.429688"/><stop stop-opacity="1" stop-color="rgb(93.035889%, 59.300232%, 20.74585%)" offset="0.4375"/><stop stop-opacity="1" stop-color="rgb(92.976379%, 59.675598%, 20.782471%)" offset="0.445312"/><stop stop-opacity="1" stop-color="rgb(92.91687%, 60.050964%, 20.819092%)" offset="0.453125"/><stop stop-opacity="1" stop-color="rgb(92.857361%, 60.426331%, 20.855713%)" offset="0.460938"/><stop stop-opacity="1" stop-color="rgb(92.797852%, 60.801697%, 20.892334%)" offset="0.46875"/><stop stop-opacity="1" stop-color="rgb(92.738342%, 61.177063%, 20.927429%)" offset="0.476562"/><stop stop-opacity="1" stop-color="rgb(92.680359%, 61.552429%, 20.96405%)" offset="0.484375"/><stop stop-opacity="1" stop-color="rgb(92.62085%, 61.927795%, 21.000671%)" offset="0.492188"/><stop stop-opacity="1" stop-color="rgb(92.56134%, 62.303162%, 21.037292%)" offset="0.5"/><stop stop-opacity="1" stop-color="rgb(92.501831%, 62.678528%, 21.073914%)" offset="0.507812"/><stop stop-opacity="1" stop-color="rgb(92.442322%, 63.053894%, 21.110535%)" offset="0.515625"/><stop stop-opacity="1" stop-color="rgb(92.382812%, 63.42926%, 21.147156%)" offset="0.523438"/><stop stop-opacity="1" stop-color="rgb(92.324829%, 63.804626%, 21.183777%)" offset="0.53125"/><stop stop-opacity="1" stop-color="rgb(92.26532%, 64.178467%, 21.220398%)" offset="0.539063"/><stop stop-opacity="1" stop-color="rgb(92.205811%, 64.553833%, 21.257019%)" offset="0.546875"/><stop stop-opacity="1" stop-color="rgb(92.146301%, 64.929199%, 21.292114%)" offset="0.554688"/><stop stop-opacity="1" stop-color="rgb(92.086792%, 65.304565%, 21.328735%)" offset="0.5625"/><stop stop-opacity="1" stop-color="rgb(92.027283%, 65.679932%, 21.365356%)" offset="0.570312"/><stop stop-opacity="1" stop-color="rgb(91.969299%, 66.055298%, 21.401978%)" offset="0.578125"/><stop stop-opacity="1" stop-color="rgb(91.90979%, 66.430664%, 21.438599%)" offset="0.585938"/><stop stop-opacity="1" stop-color="rgb(91.850281%, 66.80603%, 21.47522%)" offset="0.59375"/><stop stop-opacity="1" stop-color="rgb(91.790771%, 67.181396%, 21.511841%)" offset="0.601562"/><stop stop-opacity="1" stop-color="rgb(91.731262%, 67.556763%, 21.548462%)" offset="0.609375"/><stop stop-opacity="1" stop-color="rgb(91.671753%, 67.932129%, 21.585083%)" offset="0.617188"/><stop stop-opacity="1" stop-color="rgb(91.61377%, 68.307495%, 21.621704%)" offset="0.625"/><stop stop-opacity="1" stop-color="rgb(91.55426%, 68.682861%, 21.656799%)" offset="0.632812"/><stop stop-opacity="1" stop-color="rgb(91.494751%, 69.058228%, 21.69342%)" offset="0.640625"/><stop stop-opacity="1" stop-color="rgb(91.435242%, 69.433594%, 21.730042%)" offset="0.648438"/><stop stop-opacity="1" stop-color="rgb(91.375732%, 69.80896%, 21.766663%)" offset="0.65625"/><stop stop-opacity="1" stop-color="rgb(91.316223%, 70.1828%, 21.803284%)" offset="0.664063"/><stop stop-opacity="1" stop-color="rgb(91.25824%, 70.558167%, 21.839905%)" offset="0.671875"/><stop stop-opacity="1" stop-color="rgb(91.19873%, 70.933533%, 21.876526%)" offset="0.679688"/><stop stop-opacity="1" stop-color="rgb(91.139221%, 71.308899%, 21.913147%)" offset="0.6875"/><stop stop-opacity="1" stop-color="rgb(91.079712%, 71.684265%, 21.949768%)" offset="0.695313"/><stop stop-opacity="1" stop-color="rgb(91.02478%, 72.035217%, 21.983337%)" offset="0.703125"/><stop stop-opacity="1" stop-color="rgb(90.99884%, 72.198486%, 21.998596%)" offset="0.71875"/><stop stop-opacity="1" stop-color="rgb(90.99884%, 72.198486%, 21.998596%)" offset="0.75"/><stop stop-opacity="1" stop-color="rgb(90.99884%, 72.198486%, 21.998596%)" offset="0.829328"/><stop stop-opacity="1" stop-color="rgb(90.99884%, 72.198486%, 21.998596%)" offset="1"/></linearGradient><clipPath id="f669e99594"><path d="M 127 100 L 162 100 L 162 136 L 127 136 Z M 127 100 " clip-rule="nonzero"/></clipPath><clipPath id="4c576f2e5c"><path d="M 121.742188 111.0625 L 143.757812 92.964844 L 166.140625 120.195312 L 144.125 138.292969 Z M 121.742188 111.0625 " clip-rule="nonzero"/></clipPath><clipPath id="1c85c69c8c"><path d="M 121.742188 111.0625 L 143.757812 92.964844 L 166.140625 120.195312 L 144.125 138.292969 Z M 121.742188 111.0625 " clip-rule="nonzero"/></clipPath><clipPath id="403fc9cdb0"><path d="M 251 76 L 286 76 L 286 110 L 251 110 Z M 251 76 " clip-rule="nonzero"/></clipPath><clipPath id="a2cb8187c2"><path d="M 273.960938 68.519531 L 290.453125 91.761719 L 261.707031 112.164062 L 245.214844 88.921875 Z M 273.960938 68.519531 " clip-rule="nonzero"/></clipPath><clipPath id="c06b5b2699"><path d="M 290.617188 91.992188 L 274.121094 68.75 L 245.375 89.148438 L 261.871094 112.390625 Z M 290.617188 91.992188 " clip-rule="nonzero"/></clipPath><clipPath id="0df45c42ee"><path d="M 218 100 L 253 100 L 253 135 L 218 135 Z M 218 100 " clip-rule="nonzero"/></clipPath><clipPath id="70be863c0a"><path d="M 238.171875 92.503906 L 257.660156 113.296875 L 231.941406 137.402344 L 212.453125 116.609375 Z M 238.171875 92.503906 " clip-rule="nonzero"/></clipPath><clipPath id="c5e83cd4bb"><path d="M 257.851562 113.503906 L 238.363281 92.707031 L 212.644531 116.8125 L 232.132812 137.609375 Z M 257.851562 113.503906 " clip-rule="nonzero"/></clipPath><clipPath id="6bc863411a"><path d="M 125 51 L 154 51 L 154 87 L 125 87 Z M 125 51 " clip-rule="nonzero"/></clipPath><clipPath id="89f8022113"><path d="M 121.738281 52.730469 L 149.914062 48.429688 L 155.234375 83.273438 L 127.0625 87.578125 Z M 121.738281 52.730469 " clip-rule="nonzero"/></clipPath><clipPath id="1ca1d666cd"><path d="M 121.738281 52.730469 L 149.914062 48.429688 L 155.234375 83.273438 L 127.0625 87.578125 Z M 121.738281 52.730469 " clip-rule="nonzero"/></clipPath><clipPath id="3d9059bf5b"><path d="M 153 33 L 189 33 L 189 82 L 153 82 Z M 153 33 " clip-rule="nonzero"/></clipPath><clipPath id="5084ad24cc"><path d="M 150.769531 40.410156 L 188.644531 5.144531 L 226.460938 45.765625 L 188.585938 81.03125 Z M 150.769531 40.410156 " clip-rule="nonzero"/></clipPath><clipPath id="01d558f418"><path d="M 150.769531 40.410156 L 188.644531 5.144531 L 226.460938 45.765625 L 188.585938 81.03125 Z M 150.769531 40.410156 " clip-rule="nonzero"/></clipPath><clipPath id="0bf8d68713"><path d="M 150.777344 40.402344 L 162.628906 29.367188 L 200.460938 70.003906 L 188.609375 81.039062 Z M 150.777344 40.402344 " clip-rule="nonzero"/></clipPath><clipPath id="8d68dab25d"><path d="M 150.777344 40.402344 L 162.628906 29.367188 L 200.445312 69.988281 L 188.59375 81.023438 Z M 150.777344 40.402344 " clip-rule="nonzero"/></clipPath><clipPath id="71ffd1c025"><path d="M 195 31 L 217 31 L 217 71 L 195 71 Z M 195 31 " clip-rule="nonzero"/></clipPath><clipPath id="8b68d3ef55"><path d="M 150.769531 40.410156 L 188.644531 5.144531 L 226.460938 45.765625 L 188.585938 81.03125 Z M 150.769531 40.410156 " clip-rule="nonzero"/></clipPath><clipPath id="723d3a63c2"><path d="M 150.769531 40.410156 L 188.644531 5.144531 L 226.460938 45.765625 L 188.585938 81.03125 Z M 150.769531 40.410156 " clip-rule="nonzero"/></clipPath><clipPath id="9002b811d5"><path d="M 182.46875 55.078125 L 210.6875 28.808594 L 224.734375 43.898438 L 196.515625 70.167969 Z M 182.46875 55.078125 " clip-rule="nonzero"/></clipPath><clipPath id="73c1861977"><path d="M 182.46875 55.078125 L 210.671875 28.820312 L 224.71875 43.910156 L 196.515625 70.167969 Z M 182.46875 55.078125 " clip-rule="nonzero"/></clipPath><clipPath id="82446cfe2b"><path d="M 178 15 L 192 15 L 192 56 L 178 56 Z M 178 15 " clip-rule="nonzero"/></clipPath><clipPath id="7f7327c3f0"><path d="M 150.769531 40.410156 L 188.644531 5.144531 L 226.460938 45.765625 L 188.585938 81.03125 Z M 150.769531 40.410156 " clip-rule="nonzero"/></clipPath><clipPath id="7a1288e44a"><path d="M 150.769531 40.410156 L 188.644531 5.144531 L 226.460938 45.765625 L 188.585938 81.03125 Z M 150.769531 40.410156 " clip-rule="nonzero"/></clipPath><clipPath id="005ed960af"><path d="M 155 35 L 170 35 L 170 40 L 155 40 Z M 155 35 " clip-rule="nonzero"/></clipPath><clipPath id="300bbb8778"><path d="M 150.769531 40.410156 L 188.644531 5.144531 L 226.460938 45.765625 L 188.585938 81.03125 Z M 150.769531 40.410156 " clip-rule="nonzero"/></clipPath><clipPath id="f0ef680398"><path d="M 150.769531 40.410156 L 188.644531 5.144531 L 226.460938 45.765625 L 188.585938 81.03125 Z M 150.769531 40.410156 " clip-rule="nonzero"/></clipPath><clipPath id="287b0f54e5"><path d="M 180 17 L 184 17 L 184 29 L 180 29 Z M 180 17 " clip-rule="nonzero"/></clipPath><clipPath id="3bbb2a5337"><path d="M 150.769531 40.410156 L 188.644531 5.144531 L 226.460938 45.765625 L 188.585938 81.03125 Z M 150.769531 40.410156 " clip-rule="nonzero"/></clipPath><clipPath id="02f6dc84a9"><path d="M 150.769531 40.410156 L 188.644531 5.144531 L 226.460938 45.765625 L 188.585938 81.03125 Z M 150.769531 40.410156 " clip-rule="nonzero"/></clipPath><clipPath id="547e6cd307"><path d="M 202 33 L 214 33 L 214 40 L 202 40 Z M 202 33 " clip-rule="nonzero"/></clipPath><clipPath id="f39392d6ff"><path d="M 150.769531 40.410156 L 188.644531 5.144531 L 226.460938 45.765625 L 188.585938 81.03125 Z M 150.769531 40.410156 " clip-rule="nonzero"/></clipPath><clipPath id="d3591d2717"><path d="M 150.769531 40.410156 L 188.644531 5.144531 L 226.460938 45.765625 L 188.585938 81.03125 Z M 150.769531 40.410156 " clip-rule="nonzero"/></clipPath><clipPath id="b07f84a23f"><path d="M 219.34375 47.292969 L 229.199219 47.292969 L 229.199219 81.042969 L 219.34375 81.042969 Z M 219.34375 47.292969 " clip-rule="nonzero"/></clipPath><clipPath id="594aece7cd"><path d="M 227.375 66.957031 L 250.835938 66.957031 L 250.835938 79.496094 L 227.375 79.496094 Z M 227.375 66.957031 " clip-rule="nonzero"/></clipPath><clipPath id="084b2396fc"><path d="M 108 93 L 136 93 L 136 118 L 108 118 Z M 108 93 " clip-rule="nonzero"/></clipPath><clipPath id="840a1e3267"><path d="M 113.054688 119.324219 L 89.332031 98.601562 L 111.535156 73.183594 L 135.257812 93.90625 Z M 113.054688 119.324219 " clip-rule="nonzero"/></clipPath><clipPath id="e21021901c"><path d="M 113.054688 119.324219 L 89.332031 98.601562 L 111.535156 73.183594 L 135.257812 93.90625 Z M 113.054688 119.324219 " clip-rule="nonzero"/></clipPath><clipPath id="33ae7a37a3"><path d="M 113.050781 119.320312 L 105.628906 112.835938 L 127.839844 87.410156 L 135.265625 93.894531 Z M 113.050781 119.320312 " clip-rule="nonzero"/></clipPath><clipPath id="9eb38a1fe3"><path d="M 113.050781 119.320312 L 105.628906 112.835938 L 127.832031 87.417969 L 135.253906 93.90625 Z M 113.050781 119.320312 " clip-rule="nonzero"/></clipPath><clipPath id="67ecb67307"><path d="M 104 79 L 129 79 L 129 92 L 104 92 Z M 104 79 " clip-rule="nonzero"/></clipPath><clipPath id="6c6397ce59"><path d="M 113.054688 119.324219 L 89.332031 98.601562 L 111.535156 73.183594 L 135.257812 93.90625 Z M 113.054688 119.324219 " clip-rule="nonzero"/></clipPath><clipPath id="f1a18ccffe"><path d="M 113.054688 119.324219 L 89.332031 98.601562 L 111.535156 73.183594 L 135.257812 93.90625 Z M 113.054688 119.324219 " clip-rule="nonzero"/></clipPath><clipPath id="fd5ca94f8d"><path d="M 119.9375 99.226562 L 102.261719 83.785156 L 110.511719 74.34375 L 128.1875 89.785156 Z M 119.9375 99.226562 " clip-rule="nonzero"/></clipPath><clipPath id="01bd963220"><path d="M 119.9375 99.226562 L 102.269531 83.792969 L 110.519531 74.351562 L 128.1875 89.785156 Z M 119.9375 99.226562 " clip-rule="nonzero"/></clipPath><clipPath id="cc06d4e1f4"><path d="M 96 94 L 120 94 L 120 104 L 96 104 Z M 96 94 " clip-rule="nonzero"/></clipPath><clipPath id="d324752df5"><path d="M 113.054688 119.324219 L 89.332031 98.601562 L 111.535156 73.183594 L 135.257812 93.90625 Z M 113.054688 119.324219 " clip-rule="nonzero"/></clipPath><clipPath id="76f8f729f5"><path d="M 113.054688 119.324219 L 89.332031 98.601562 L 111.535156 73.183594 L 135.257812 93.90625 Z M 113.054688 119.324219 " clip-rule="nonzero"/></clipPath><clipPath id="df110bd9e0"><path d="M 109 108 L 113 108 L 113 117 L 109 117 Z M 109 108 " clip-rule="nonzero"/></clipPath><clipPath id="4ede7113ba"><path d="M 113.054688 119.324219 L 89.332031 98.601562 L 111.535156 73.183594 L 135.257812 93.90625 Z M 113.054688 119.324219 " clip-rule="nonzero"/></clipPath><clipPath id="43e8a503ba"><path d="M 113.054688 119.324219 L 89.332031 98.601562 L 111.535156 73.183594 L 135.257812 93.90625 Z M 113.054688 119.324219 " clip-rule="nonzero"/></clipPath><clipPath id="01c62f1198"><path d="M 96 100 L 105 100 L 105 103 L 96 103 Z M 96 100 " clip-rule="nonzero"/></clipPath><clipPath id="6beda6fe93"><path d="M 113.054688 119.324219 L 89.332031 98.601562 L 111.535156 73.183594 L 135.257812 93.90625 Z M 113.054688 119.324219 " clip-rule="nonzero"/></clipPath><clipPath id="323a800508"><path d="M 113.054688 119.324219 L 89.332031 98.601562 L 111.535156 73.183594 L 135.257812 93.90625 Z M 113.054688 119.324219 " clip-rule="nonzero"/></clipPath><clipPath id="347d012a67"><path d="M 105 81 L 110 81 L 110 88 L 105 88 Z M 105 81 " clip-rule="nonzero"/></clipPath><clipPath id="ed2624f74d"><path d="M 113.054688 119.324219 L 89.332031 98.601562 L 111.535156 73.183594 L 135.257812 93.90625 Z M 113.054688 119.324219 " clip-rule="nonzero"/></clipPath><clipPath id="7deae5d52c"><path d="M 113.054688 119.324219 L 89.332031 98.601562 L 111.535156 73.183594 L 135.257812 93.90625 Z M 113.054688 119.324219 " clip-rule="nonzero"/></clipPath></defs><g clip-path="url(#7d743173e6)"><g clip-path="url(#98f58e1cc0)"><g clip-path="url(#932bde0bc2)"><g clip-path="url(#ee7d69f33d)"><path fill="url(#3a392af816)" d="M 40.675781 159.289062 L 189.878906 10.082031 L 339.085938 159.289062 L 189.878906 308.496094 Z M 40.675781 159.289062 " fill-rule="nonzero"/></g></g></g></g><g clip-path="url(#c8edb79bea)"><g clip-path="url(#2c9aac394f)"><g clip-path="url(#33db4142b7)"><g clip-path="url(#f549de4d5f)"><g clip-path="url(#c92c6479e8)"><path fill="url(#9e94ee0088)" d="M 255.152344 109.621094 L 190.121094 174.652344 L 125.089844 109.621094 L 190.121094 44.589844 Z M 255.152344 109.621094 " fill-rule="nonzero"/></g></g></g></g></g><g clip-path="url(#f669e99594)"><g clip-path="url(#4c576f2e5c)"><g clip-path="url(#1c85c69c8c)"><path fill="#ff5757" d="M 160.757812 114.46875 C 161.234375 115.085938 161.175781 115.957031 160.621094 116.5 C 160.589844 116.53125 160.558594 116.558594 160.527344 116.585938 C 159.96875 117.042969 159.15625 117.046875 158.589844 116.582031 C 151.269531 110.582031 148.007812 113.058594 143.484375 116.484375 C 140.3125 118.890625 136.976562 119.886719 134.101562 119.289062 C 131.832031 118.816406 129.953125 117.382812 128.675781 115.136719 C 127.441406 112.976562 127.222656 110.613281 128.042969 108.304688 C 129.078125 105.394531 131.675781 102.898438 134.996094 101.628906 C 147.082031 97.015625 160.207031 113.753906 160.757812 114.46875 Z M 156.628906 118.308594 C 156.035156 118.292969 142.09375 118.066406 139.445312 126.332031 C 138.703125 128.644531 138.925781 131.117188 140.042969 132.945312 C 140.949219 134.425781 142.34375 135.359375 144.074219 135.644531 C 145.859375 135.941406 147.472656 135.546875 148.738281 134.5 C 148.8125 134.441406 148.886719 134.375 148.957031 134.3125 C 150.390625 133 151.214844 130.875 151.285156 128.289062 C 151.382812 124.78125 151.445312 122.464844 156.917969 121.332031 C 157.675781 121.175781 158.195312 120.472656 158.121094 119.699219 C 158.046875 118.925781 157.40625 118.324219 156.628906 118.308594 Z M 156.628906 118.308594 " fill-opacity="1" fill-rule="nonzero"/></g></g></g><g clip-path="url(#403fc9cdb0)"><g clip-path="url(#a2cb8187c2)"><g clip-path="url(#c06b5b2699)"><path fill="#e8b838" d="M 252.070312 85.035156 C 251.449219 85.507812 251.277344 86.363281 251.671875 87.03125 C 251.695312 87.070312 251.71875 87.105469 251.742188 87.140625 C 252.160156 87.726562 252.941406 87.945312 253.609375 87.644531 C 262.246094 83.777344 264.75 87.019531 268.210938 91.511719 C 270.644531 94.667969 273.597656 96.503906 276.53125 96.683594 C 278.84375 96.824219 281.03125 95.929688 282.855469 94.101562 C 284.613281 92.339844 285.445312 90.117188 285.257812 87.675781 C 285.023438 84.59375 283.171875 81.503906 280.300781 79.410156 C 269.847656 71.785156 252.792969 84.492188 252.070312 85.035156 Z M 255.050781 89.824219 C 255.625 89.96875 269.136719 93.40625 269.523438 102.074219 C 269.632812 104.503906 268.769531 106.832031 267.210938 108.300781 C 265.949219 109.492188 264.359375 110.027344 262.613281 109.851562 C 260.8125 109.667969 259.363281 108.863281 258.414062 107.523438 C 258.359375 107.441406 258.304688 107.363281 258.253906 107.28125 C 257.214844 105.636719 256.976562 103.371094 257.585938 100.859375 C 258.414062 97.449219 258.960938 95.199219 253.976562 92.667969 C 253.285156 92.316406 252.96875 91.503906 253.246094 90.777344 C 253.519531 90.046875 254.296875 89.640625 255.050781 89.824219 Z M 255.050781 89.824219 " fill-opacity="1" fill-rule="nonzero"/></g></g></g><g clip-path="url(#0df45c42ee)"><g clip-path="url(#70be863c0a)"><g clip-path="url(#c5e83cd4bb)"><path fill="#ff724d" d="M 218.722656 111.832031 C 218.167969 112.378906 218.117188 113.253906 218.597656 113.863281 C 218.621094 113.898438 218.652344 113.929688 218.679688 113.960938 C 219.171875 114.484375 219.976562 114.597656 220.601562 114.207031 C 228.632812 109.207031 231.550781 112.082031 235.589844 116.0625 C 238.425781 118.859375 241.601562 120.28125 244.53125 120.058594 C 246.84375 119.886719 248.890625 118.703125 250.449219 116.648438 C 251.953125 114.660156 252.476562 112.347656 251.960938 109.953125 C 251.3125 106.929688 249.058594 104.121094 245.929688 102.433594 C 234.542969 96.296875 219.363281 111.195312 218.722656 111.832031 Z M 222.320312 116.171875 C 222.910156 116.234375 236.765625 117.8125 238.320312 126.351562 C 238.757812 128.742188 238.214844 131.164062 236.871094 132.832031 C 235.78125 134.183594 234.28125 134.929688 232.527344 134.988281 C 230.71875 135.050781 229.171875 134.449219 228.050781 133.25 C 227.984375 133.179688 227.921875 133.109375 227.859375 133.035156 C 226.609375 131.546875 226.066406 129.335938 226.328125 126.761719 C 226.6875 123.273438 226.921875 120.96875 221.644531 119.136719 C 220.910156 118.882812 220.488281 118.117188 220.660156 117.359375 C 220.835938 116.601562 221.550781 116.089844 222.320312 116.171875 Z M 222.320312 116.171875 " fill-opacity="1" fill-rule="nonzero"/></g></g></g><g clip-path="url(#6bc863411a)"><g clip-path="url(#89f8022113)"><g clip-path="url(#1ca1d666cd)"><path fill="#ff914d" d="M 153.535156 75.601562 C 153.628906 76.375 153.132812 77.09375 152.378906 77.277344 C 152.335938 77.285156 152.292969 77.292969 152.253906 77.300781 C 151.539062 77.410156 150.839844 77 150.589844 76.308594 C 147.367188 67.410156 143.296875 67.871094 137.660156 68.503906 C 133.699219 68.949219 130.328125 68.101562 128.160156 66.117188 C 126.449219 64.550781 125.570312 62.359375 125.617188 59.777344 C 125.664062 57.289062 126.683594 55.144531 128.566406 53.582031 C 130.941406 51.609375 134.453125 50.792969 137.953125 51.398438 C 150.699219 53.609375 153.425781 74.703125 153.535156 75.601562 Z M 148.023438 76.789062 C 147.519531 76.476562 135.65625 69.152344 129.152344 74.902344 C 127.332031 76.511719 126.261719 78.753906 126.289062 80.894531 C 126.308594 82.628906 127.03125 84.144531 128.371094 85.273438 C 129.753906 86.441406 131.34375 86.925781 132.964844 86.675781 C 133.058594 86.660156 133.152344 86.644531 133.25 86.625 C 135.152344 86.226562 136.945312 84.824219 138.328125 82.636719 C 140.203125 79.671875 141.441406 77.714844 146.722656 79.539062 C 147.457031 79.792969 148.261719 79.449219 148.59375 78.746094 C 148.925781 78.042969 148.679688 77.203125 148.023438 76.789062 Z M 148.023438 76.789062 " fill-opacity="1" fill-rule="nonzero"/></g></g></g><g clip-path="url(#3d9059bf5b)"><g clip-path="url(#5084ad24cc)"><g clip-path="url(#01d558f418)"><g clip-path="url(#0bf8d68713)"><g clip-path="url(#8d68dab25d)"><path fill="#ff724d" d="M 155.441406 36.246094 C 161.300781 28.386719 173.828125 37.988281 180.691406 51.855469 C 187.550781 65.71875 189.324219 82.378906 188.511719 80.914062 C 187.699219 79.453125 183.988281 65.429688 173.917969 58.15625 C 163.851562 50.886719 149.242188 44.558594 155.441406 36.246094 " fill-opacity="1" fill-rule="nonzero"/></g></g></g></g></g><g clip-path="url(#71ffd1c025)"><g clip-path="url(#8b68d3ef55)"><g clip-path="url(#723d3a63c2)"><g clip-path="url(#9002b811d5)"><g clip-path="url(#73c1861977)"><path fill="#ff724d" d="M 196.566406 70.085938 C 196.300781 71.058594 193.769531 58.820312 197.160156 46.230469 C 200.554688 33.636719 212.527344 28.097656 216.09375 34.984375 C 219.199219 40.972656 211.371094 44.375 206.027344 50.734375 C 200.683594 57.097656 197.371094 67.117188 196.566406 70.085938 " fill-opacity="1" fill-rule="nonzero"/></g></g></g></g></g><g clip-path="url(#82446cfe2b)"><g clip-path="url(#7f7327c3f0)"><g clip-path="url(#7a1288e44a)"><path fill="#ff724d" d="M 183.085938 16.054688 C 191.304688 14.300781 191.71875 32.707031 190.699219 42.535156 C 190.023438 49.070312 190.828125 56.839844 190.164062 55.242188 C 189.5 53.640625 186.097656 43.492188 182.34375 35.332031 C 178.59375 27.171875 176.898438 17.378906 183.085938 16.054688 " fill-opacity="1" fill-rule="nonzero"/></g></g></g><g clip-path="url(#005ed960af)"><g clip-path="url(#300bbb8778)"><g clip-path="url(#f0ef680398)"><path fill="#ffbd59" d="M 161.003906 35.136719 C 165.070312 34.941406 169.78125 39.445312 169.113281 39.515625 C 168.441406 39.582031 164.882812 37.039062 160.546875 37.6875 C 157.476562 38.144531 157 39.789062 156.066406 39.175781 C 154.910156 38.421875 157.101562 35.320312 161.003906 35.136719 " fill-opacity="1" fill-rule="nonzero"/></g></g></g><g clip-path="url(#287b0f54e5)"><g clip-path="url(#3bbb2a5337)"><g clip-path="url(#02f6dc84a9)"><path fill="#ffbd59" d="M 180.59375 21.742188 C 180.054688 24.734375 181.113281 28.894531 181.574219 28.652344 C 182.035156 28.40625 181.636719 24.433594 182.1875 21.976562 C 182.738281 19.523438 183.933594 17.949219 183.804688 17.417969 C 183.679688 16.890625 181.308594 17.789062 180.59375 21.742188 " fill-opacity="1" fill-rule="nonzero"/></g></g></g><g clip-path="url(#547e6cd307)"><g clip-path="url(#f39392d6ff)"><g clip-path="url(#d3591d2717)"><path fill="#ffbd59" d="M 207.683594 34.214844 C 210.125 32.796875 213.078125 33.613281 213.160156 34.191406 C 213.242188 34.773438 210.269531 34.628906 207.136719 36.480469 C 204.417969 38.085938 202.980469 39.886719 202.855469 39.355469 C 202.726562 38.828125 204.046875 36.328125 207.683594 34.214844 " fill-opacity="1" fill-rule="nonzero"/></g></g></g><g clip-path="url(#b07f84a23f)"><path fill="#ffbd59" d="M 223.144531 47.375 C 229.015625 46.304688 230.613281 55.773438 227.921875 64.785156 C 225.226562 73.800781 219.105469 81.949219 219.351562 80.960938 C 219.59375 79.972656 223.757812 72.195312 222.289062 64.785156 C 220.820312 57.378906 216.933594 48.507812 223.144531 47.375 " fill-opacity="1" fill-rule="nonzero"/></g><g clip-path="url(#594aece7cd)"><path fill="#ffbd59" d="M 227.429688 79.480469 C 226.910156 79.804688 230.859375 73.304688 237.59375 69.109375 C 244.328125 64.910156 251.960938 67.40625 250.695312 71.949219 C 249.59375 75.898438 244.695312 74.171875 239.675781 74.789062 C 234.65625 75.40625 229.023438 78.492188 227.429688 79.480469 " fill-opacity="1" fill-rule="nonzero"/></g><path fill="#ffbd59" d="M 243.839844 49.84375 C 248.230469 52.46875 240.777344 60.835938 236.246094 64.785156 C 233.234375 67.414062 230.371094 71.207031 230.738281 70.21875 C 231.105469 69.230469 233.796875 63.304688 235.511719 58.117188 C 237.226562 52.933594 240.53125 47.871094 243.839844 49.84375 " fill-opacity="1" fill-rule="nonzero"/><path fill="#f27932" d="M 226.085938 49.1875 C 227.976562 50.785156 228.207031 54.742188 227.878906 54.496094 C 227.554688 54.25 227.023438 51.640625 224.824219 50.132812 C 223.265625 49.066406 222.371094 49.597656 222.207031 48.941406 C 222.003906 48.125 224.269531 47.652344 226.085938 49.1875 " fill-opacity="1" fill-rule="nonzero"/><path fill="#f27932" d="M 240.371094 51.34375 C 238.886719 52.453125 237.632812 54.742188 237.941406 54.824219 C 238.246094 54.910156 239.714844 52.972656 240.980469 52.109375 C 242.246094 51.246094 243.429688 51.039062 243.59375 50.75 C 243.757812 50.464844 242.328125 49.878906 240.371094 51.34375 " fill-opacity="1" fill-rule="nonzero"/><path fill="#f27932" d="M 247.265625 68.121094 C 248.941406 68.5 249.917969 70.085938 249.714844 70.378906 C 249.511719 70.671875 248.246094 69.375 246.082031 68.902344 C 244.207031 68.492188 242.816406 68.695312 242.980469 68.410156 C 243.144531 68.121094 244.769531 67.554688 247.265625 68.121094 " fill-opacity="1" fill-rule="nonzero"/><g clip-path="url(#084b2396fc)"><g clip-path="url(#840a1e3267)"><g clip-path="url(#e21021901c)"><g clip-path="url(#33ae7a37a3)"><g clip-path="url(#9eb38a1fe3)"><path fill="#ffbd59" d="M 110.242188 116.757812 C 105.117188 113.703125 110.140625 105.519531 118.097656 100.503906 C 126.058594 95.488281 136.03125 93.378906 135.195312 93.960938 C 134.363281 94.542969 126.109375 97.664062 122.339844 104.210938 C 118.574219 110.757812 115.664062 119.992188 110.242188 116.757812 " fill-opacity="1" fill-rule="nonzero"/></g></g></g></g></g><g clip-path="url(#67ecb67307)"><g clip-path="url(#6c6397ce59)"><g clip-path="url(#f1a18ccffe)"><g clip-path="url(#fd5ca94f8d)"><g clip-path="url(#01bd963220)"><path fill="#ffbd59" d="M 128.136719 89.761719 C 128.742188 89.859375 121.492188 92.15625 113.65625 90.886719 C 105.824219 89.617188 101.71875 82.714844 105.660156 80.128906 C 109.089844 77.878906 111.640625 82.402344 115.828125 85.238281 C 120.011719 88.078125 126.285156 89.457031 128.136719 89.761719 " fill-opacity="1" fill-rule="nonzero"/></g></g></g></g></g><g clip-path="url(#cc06d4e1f4)"><g clip-path="url(#d324752df5)"><g clip-path="url(#76f8f729f5)"><path fill="#ffbd59" d="M 96.28125 101.285156 C 94.703125 96.421875 105.816406 95.023438 111.828125 95.027344 C 115.824219 95.03125 120.480469 94.058594 119.550781 94.558594 C 118.625 95.0625 112.699219 97.753906 107.996094 100.53125 C 103.292969 103.308594 97.472656 104.945312 96.28125 101.285156 " fill-opacity="1" fill-rule="nonzero"/></g></g></g><g clip-path="url(#df110bd9e0)"><g clip-path="url(#4ede7113ba)"><g clip-path="url(#43e8a503ba)"><path fill="#f27932" d="M 109.21875 113.460938 C 108.847656 111.011719 111.277344 107.878906 111.359375 108.28125 C 111.445312 108.679688 110.128906 110.996094 110.792969 113.578125 C 111.265625 115.40625 112.289062 115.59375 111.976562 116.199219 C 111.59375 116.941406 109.578125 115.808594 109.21875 113.460938 " fill-opacity="1" fill-rule="nonzero"/></g></g></g><g clip-path="url(#01c62f1198)"><g clip-path="url(#6beda6fe93)"><g clip-path="url(#323a800508)"><path fill="#f27932" d="M 99.882812 102.4375 C 101.726562 102.578125 104.179688 101.679688 104 101.414062 C 103.824219 101.148438 101.445312 101.640625 99.921875 101.460938 C 98.402344 101.277344 97.375 100.652344 97.0625 100.761719 C 96.75 100.871094 97.441406 102.253906 99.882812 102.4375 " fill-opacity="1" fill-rule="nonzero"/></g></g></g><g clip-path="url(#347d012a67)"><g clip-path="url(#ed2624f74d)"><g clip-path="url(#7deae5d52c)"><path fill="#f27932" d="M 105.722656 85.265625 C 104.710938 83.878906 105.019531 82.039062 105.363281 81.953125 C 105.710938 81.867188 105.8125 83.675781 107.128906 85.457031 C 108.273438 87 109.453125 87.757812 109.140625 87.867188 C 108.828125 87.976562 107.230469 87.335938 105.722656 85.265625 " fill-opacity="1" fill-rule="nonzero"/></g></g></g></svg>