<svg xmlns="http://www.w3.org/2000/svg" xmlns:xlink="http://www.w3.org/1999/xlink" width="500" zoomAndPan="magnify" viewBox="0 0 375 225" height="300" preserveAspectRatio="xMidYMid meet" version="1.0"><defs><clipPath id="ad72a409cf"><path d="M 24.375 22.5 L 350.828125 22.5 L 350.828125 204 L 24.375 204 Z M 24.375 22.5 " clip-rule="nonzero"/></clipPath></defs><g clip-path="url(#ad72a409cf)"><path fill="#351702" d="M 331.351562 200.941406 L 265.042969 200.941406 C 265.144531 195.582031 265.367188 178.429688 264.578125 173.078125 C 263.609375 166.496094 263.21875 154.886719 263.21875 154.886719 L 264.191406 131.855469 L 260.5 116.179688 L 265.003906 100.695312 L 261.472656 91.023438 L 251.636719 89.332031 L 250.222656 73.992188 L 248.785156 54.457031 L 255.628906 53.011719 L 257.03125 74.890625 L 258.476562 52.410156 L 258.894531 52.320312 L 264.367188 52.5 L 269.652344 55.230469 L 269.96875 55.222656 L 269.167969 58.402344 L 269.003906 59.058594 L 269.339844 59.527344 L 273.988281 65.882812 L 272.082031 73.132812 L 272.050781 73.25 L 272.050781 73.308594 C 272.03125 76.632812 272.082031 79.9375 272.191406 83.25 C 272.304688 86.554688 272.484375 89.859375 272.785156 93.148438 C 272.726562 89.847656 272.792969 86.546875 272.925781 83.25 C 273.058594 79.992188 273.253906 76.730469 273.519531 73.492188 L 276.105469 65.96875 L 276.253906 65.542969 L 275.976562 65.089844 L 271.9375 58.605469 L 273.09375 55.125 L 276.261719 55.027344 L 284.527344 54.257812 L 293.484375 55.40625 L 295.753906 55.679688 C 296.167969 58.601562 296.773438 63.320312 296.773438 63.320312 L 294.410156 66.804688 L 286.804688 74.660156 L 286.503906 74.96875 L 286.429688 75.351562 L 284.027344 87.484375 L 283.996094 87.621094 L 284 87.734375 L 284.21875 102.558594 L 275.660156 109.371094 L 275.289062 109.664062 L 275.359375 110.113281 L 276.785156 119.074219 L 277.191406 146.113281 L 277.191406 146.179688 L 277.226562 146.238281 C 277.554688 146.8125 277.835938 147.460938 278.078125 148.101562 C 278.335938 148.742188 278.542969 149.40625 278.738281 150.070312 C 278.84375 150.402344 278.914062 150.742188 279.003906 151.078125 C 279.09375 151.410156 279.15625 151.757812 279.230469 152.09375 C 279.304688 152.433594 279.371094 152.773438 279.421875 153.113281 C 279.472656 153.460938 279.542969 153.800781 279.582031 154.148438 L 279.707031 155.1875 C 279.753906 155.527344 279.765625 155.878906 279.796875 156.226562 C 279.820312 156.570312 279.859375 156.917969 279.863281 157.269531 L 279.894531 158.3125 C 279.925781 159.007812 279.890625 159.707031 279.886719 160.402344 C 279.859375 161.101562 279.808594 161.796875 279.773438 162.496094 C 279.828125 161.796875 279.898438 161.101562 279.949219 160.410156 C 279.972656 159.707031 280.027344 159.007812 280.023438 158.3125 L 280.023438 157.261719 C 280.027344 156.910156 279.996094 156.5625 279.988281 156.214844 C 279.964844 155.863281 279.960938 155.511719 279.925781 155.167969 L 279.832031 154.117188 C 279.804688 153.765625 279.742188 153.421875 279.699219 153.074219 C 279.660156 152.726562 279.605469 152.378906 279.539062 152.035156 C 279.476562 151.691406 279.421875 151.34375 279.34375 150.996094 C 279.261719 150.65625 279.203125 150.3125 279.105469 149.976562 C 278.925781 149.292969 278.738281 148.617188 278.496094 147.949219 C 278.269531 147.308594 278.019531 146.683594 277.695312 146.0625 L 278.105469 119.019531 L 278.105469 118.980469 L 278.097656 118.921875 L 277.003906 110.355469 L 285.792969 103.785156 L 286.164062 103.511719 L 286.167969 103.019531 L 286.398438 87.875 L 289.046875 76.34375 L 290.902344 74.535156 C 290.917969 74.738281 292.402344 83.28125 293.816406 91.214844 C 295.222656 99.148438 295.609375 105.136719 295.609375 105.136719 C 295.609375 105.136719 299.488281 115.984375 300.648438 120.632812 C 301.816406 125.273438 300.648438 132.824219 300.648438 132.824219 L 301.171875 149.078125 C 301.171875 149.078125 306.082031 178.304688 306.277344 177.332031 C 306.46875 176.363281 306.277344 152.945312 306.277344 152.945312 L 304.339844 136.695312 L 305.308594 126.433594 L 306.363281 114.632812 L 304.53125 100.890625 C 304.53125 100.890625 305.675781 83.085938 306.363281 79.023438 C 306.9375 75.636719 306.679688 71.832031 306.578125 70.65625 L 312.414062 72.75 L 315.527344 77.820312 L 313.984375 89.953125 L 314.214844 90.386719 C 314.226562 90.425781 316.238281 94.269531 316.769531 97.46875 C 317.269531 100.441406 317.324219 104.238281 317.328125 105.007812 L 314.253906 121.308594 L 313.835938 140.492188 L 317.386719 159.980469 C 317.386719 159.980469 315.535156 170.070312 315.519531 171.070312 C 315.46875 173.070312 315.601562 175.199219 315.753906 177.253906 C 316.027344 181.394531 316.226562 185.539062 316.335938 188.65625 C 316.441406 191.769531 316.472656 193.847656 316.472656 193.847656 C 316.472656 193.847656 316.636719 191.777344 316.820312 188.660156 C 317.003906 185.546875 317.195312 181.394531 317.304688 177.222656 C 317.34375 175.128906 317.40625 173.101562 317.636719 171.21875 C 317.738281 170.277344 319.121094 165.007812 319.355469 164.511719 L 319.828125 165.601562 C 320.40625 169.054688 320.886719 171.917969 320.886719 171.917969 L 325.023438 181.203125 L 327.09375 189.71875 L 332.523438 196.167969 Z M 206.414062 200.941406 L 207.417969 182.914062 L 208.152344 177.707031 L 212.777344 168.257812 L 212.785156 168.246094 L 212.804688 168.191406 L 215.898438 160.214844 C 216.039062 162.410156 216.160156 164.605469 216.257812 166.804688 C 216.347656 168.871094 216.40625 170.9375 216.4375 173.011719 L 216.453125 176.113281 C 216.445312 177.148438 216.480469 178.191406 216.527344 179.230469 C 216.589844 180.269531 216.65625 181.304688 216.777344 182.335938 C 216.886719 183.367188 217.039062 184.394531 217.226562 185.417969 C 217.425781 186.4375 217.660156 187.449219 217.980469 188.441406 C 218.308594 189.425781 218.664062 190.410156 219.257812 191.265625 C 218.691406 190.394531 218.359375 189.398438 218.0625 188.410156 C 217.773438 187.425781 217.5625 186.40625 217.398438 185.386719 C 217.230469 184.371094 217.109375 183.34375 217.03125 182.3125 C 216.941406 181.28125 216.90625 180.246094 216.875 179.21875 C 216.855469 178.1875 216.847656 177.160156 216.886719 176.121094 L 216.949219 173.011719 C 216.980469 170.933594 216.976562 168.863281 216.945312 166.785156 C 216.898438 163.914062 216.804688 161.050781 216.6875 158.183594 L 216.621094 156.5625 C 216.589844 155.824219 216.5625 155.085938 216.53125 154.347656 C 216.332031 150.230469 216.097656 146.117188 215.808594 141.996094 L 217.609375 123.742188 L 217.621094 123.65625 L 217.605469 123.542969 L 216.078125 110.070312 L 215.910156 109.023438 C 215.707031 108.507812 215.503906 107.925781 215.328125 107.363281 C 215.152344 106.792969 214.992188 106.222656 214.847656 105.648438 C 214.574219 104.5 214.375 103.339844 214.292969 102.191406 C 214.257812 101.625 214.257812 101.058594 214.289062 100.507812 L 214.378906 99.703125 L 214.523438 99.007812 L 214.796875 98.214844 C 214.914062 97.96875 215.027344 97.683594 215.152344 97.464844 L 215.328125 97.132812 C 215.339844 97.117188 215.347656 97.105469 215.359375 97.089844 C 215.441406 97.117188 215.539062 97.160156 215.640625 97.199219 C 215.769531 97.242188 215.878906 97.285156 216.027344 97.316406 C 216.1875 97.34375 216.339844 97.363281 216.496094 97.378906 C 216.8125 97.375 217.164062 97.34375 217.425781 97.234375 C 217.714844 97.148438 217.960938 97.011719 218.195312 96.855469 C 218.488281 96.675781 218.558594 96.589844 218.679688 96.492188 L 219.308594 95.96875 C 219.722656 95.703125 220.183594 95.445312 220.707031 95.214844 C 221.21875 94.980469 221.765625 94.773438 222.320312 94.578125 C 223.429688 94.1875 224.585938 93.851562 225.761719 93.554688 C 226.929688 93.261719 228.121094 92.992188 229.296875 92.765625 L 230.257812 94.054688 L 231.15625 98.507812 L 232.96875 107.140625 L 230.042969 120.246094 L 229.964844 120.597656 L 230.101562 120.886719 L 233.460938 128.140625 L 233.484375 128.179688 L 233.488281 128.195312 L 237.695312 135.71875 L 238.394531 174.496094 L 239.09375 135.53125 L 239.097656 135.367188 L 239.011719 135.199219 L 235.027344 127.425781 L 232.074219 120.410156 L 235.46875 107.441406 L 235.527344 107.203125 L 235.476562 106.90625 L 233.917969 97.988281 L 233.167969 93.535156 L 232.816406 91.3125 L 232.707031 90.558594 L 233.351562 90.441406 L 242.464844 88.894531 L 244.597656 93.148438 L 250.222656 96.636719 C 250.222656 96.636719 249.0625 101.46875 249.0625 108.632812 C 249.0625 115.792969 250.222656 123.339844 250.222656 123.339844 L 251.824219 156.433594 L 252.488281 170.753906 L 260.5 180.238281 L 260.5 191.460938 C 260.5 191.460938 263.328125 197.878906 264.5 200.941406 Z M 206.574219 145.96875 L 208.40625 133.972656 L 206.605469 123.722656 L 208.304688 118.644531 L 214.105469 112.25 L 215.722656 123.695312 L 214.4375 141.921875 L 214.429688 141.996094 L 214.4375 142.039062 C 214.835938 146.15625 215.191406 150.285156 215.503906 154.414062 C 215.546875 155.007812 215.585938 155.609375 215.625 156.203125 L 211.234375 167.621094 L 207.128906 177.289062 L 205.195312 169.515625 Z M 203.894531 165.207031 C 202.585938 161.753906 199.8125 154.472656 199.515625 154.222656 L 194.953125 137.46875 L 193.910156 129.757812 L 192.488281 107.054688 L 191.117188 97.953125 L 194.003906 90.960938 L 191.109375 80.976562 L 192.625 65.898438 L 190.035156 54.769531 C 190.035156 55.53125 190.640625 63.507812 190.800781 65.589844 L 187.925781 81.132812 L 190.722656 90.78125 L 187.917969 97.570312 L 189.398438 107.3125 L 190.820312 129.984375 L 193.421875 161.585938 L 198.828125 176.0625 L 198.828125 200.941406 L 143.304688 200.941406 L 141.929688 194.917969 L 140.902344 178.320312 L 140.902344 163.621094 L 139.070312 151.925781 C 139.066406 151.375 139.066406 149.027344 139.066406 146.117188 L 143.746094 143.851562 L 147.820312 137.664062 L 149.46875 125.605469 C 150.863281 124.867188 152.308594 124.164062 153.757812 123.550781 C 154.191406 123.359375 154.628906 123.183594 155.074219 123.015625 C 155.511719 122.835938 155.949219 122.699219 156.390625 122.535156 C 156.828125 122.410156 157.273438 122.246094 157.707031 122.15625 C 158.144531 122.03125 158.566406 121.957031 158.984375 121.890625 C 159.386719 121.847656 159.808594 121.808594 160.101562 121.859375 C 160.230469 121.855469 160.519531 121.914062 160.75 121.957031 L 161.238281 122.046875 L 157.917969 133.351562 L 157.882812 133.472656 L 157.875 133.523438 L 155.472656 150.902344 L 155.457031 151.019531 L 155.472656 151.097656 L 159.066406 174.496094 L 156.863281 151.046875 L 160.242188 134.042969 L 164.246094 122.617188 L 164.363281 122.644531 L 170.085938 123.722656 L 175.605469 125.574219 L 178.242188 130.1875 L 179.917969 140.460938 L 178.917969 158.070312 L 178.914062 158.160156 L 178.929688 158.226562 L 180.3125 163.707031 L 181.734375 171.941406 L 182.019531 189.71875 L 182.304688 171.917969 L 182.304688 171.894531 L 182.300781 171.871094 L 181.144531 163.554688 L 181.144531 163.542969 L 181.136719 163.523438 L 179.953125 158.078125 L 181.527344 140.476562 L 181.53125 140.402344 L 181.519531 140.304688 L 180.136719 129.710938 L 180.117188 129.554688 L 180.027344 129.386719 L 177.265625 124.179688 L 177.082031 123.835938 L 176.683594 123.6875 L 172.613281 122.171875 C 172.328125 117.199219 171.457031 101.566406 171.675781 100.695312 C 171.9375 99.664062 171.675781 85.214844 171.675781 85.214844 L 171.675781 74.890625 L 178.398438 62.792969 L 185.636719 54.769531 L 182.019531 42.898438 L 180.769531 29.675781 L 184.863281 29.675781 L 200.632812 26.980469 L 199.101562 37 L 199.042969 37.40625 L 199.191406 37.734375 L 204.054688 48.425781 L 206.785156 57.363281 L 207.03125 68.679688 L 204 96.214844 L 208.207031 68.78125 L 208.214844 68.753906 L 208.214844 68.703125 L 208.457031 57.226562 L 208.464844 57.128906 L 208.425781 57.003906 L 206.035156 47.78125 L 206.023438 47.734375 L 205.996094 47.648438 L 201.726562 37.097656 L 203.769531 26.683594 L 215.476562 25.621094 L 217.730469 25.921875 C 217.523438 29.539062 218.0625 38.382812 218.0625 38.382812 L 216.671875 45.933594 L 217.371094 54.640625 L 217.371094 62.1875 L 218.414062 52.023438 L 220.359375 43.316406 C 220.359375 43.316406 219.777344 56.574219 220.359375 61.414062 L 220.359375 71.476562 L 221.714844 80.765625 L 221.714844 91.722656 C 221.582031 91.773438 221.449219 91.816406 221.316406 91.867188 C 220.097656 92.34375 218.890625 92.84375 217.660156 93.71875 L 217.191406 94.117188 L 216.871094 94.402344 C 216.757812 94.503906 216.609375 94.640625 216.621094 94.605469 C 216.59375 94.621094 216.574219 94.640625 216.5625 94.636719 C 216.542969 94.640625 216.5625 94.644531 216.574219 94.652344 C 216.570312 94.652344 216.558594 94.644531 216.527344 94.640625 C 216.460938 94.621094 216.371094 94.578125 216.171875 94.496094 C 216.105469 94.46875 215.953125 94.417969 215.808594 94.375 C 215.695312 94.328125 215.464844 94.292969 215.257812 94.285156 C 215.0625 94.257812 214.808594 94.316406 214.585938 94.375 C 214.335938 94.4375 214.21875 94.542969 214.035156 94.644531 C 213.851562 94.757812 213.757812 94.859375 213.667969 94.957031 C 213.570312 95.050781 213.46875 95.160156 213.386719 95.261719 L 213.035156 95.796875 L 212.785156 96.285156 C 212.621094 96.613281 212.511719 96.914062 212.375 97.230469 L 212.367188 97.261719 L 212.320312 97.367188 L 212.304688 97.425781 L 212.269531 97.535156 L 212.203125 97.761719 L 212.066406 98.203125 C 211.984375 98.558594 211.910156 98.953125 211.84375 99.328125 C 211.804688 99.679688 211.785156 100.019531 211.753906 100.371094 C 211.734375 101.054688 211.753906 101.730469 211.820312 102.390625 C 211.941406 103.714844 212.207031 104.996094 212.542969 106.246094 C 212.710938 106.867188 212.90625 107.480469 213.109375 108.09375 C 213.308594 108.65625 213.511719 109.195312 213.753906 109.765625 L 213.820312 110.25 L 206.9375 117.84375 L 205.015625 123.605469 L 206.835938 133.992188 L 205.035156 145.804688 Z M 114.300781 200.941406 L 107.867188 190.300781 L 104.957031 178.304688 L 105.34375 165.722656 L 105.539062 153.917969 L 101.464844 146.179688 C 101.464844 146.179688 99.136719 140.371094 99.332031 131.664062 C 99.34375 131.246094 99.355469 130.835938 99.367188 130.429688 C 99.394531 130.414062 99.414062 130.398438 99.445312 130.378906 L 99.671875 130.226562 C 100.011719 130.035156 100.394531 129.867188 100.804688 129.722656 C 101.214844 129.582031 101.652344 129.472656 102.101562 129.386719 C 102.324219 129.347656 102.554688 129.3125 102.78125 129.285156 L 103.121094 129.246094 L 103.222656 129.238281 L 108.921875 131.09375 L 109.289062 131.214844 L 109.609375 131.144531 L 116.742188 129.574219 C 116.746094 129.589844 116.757812 129.605469 116.765625 129.621094 C 116.863281 129.839844 116.933594 130.128906 116.980469 130.445312 C 117.074219 131.070312 117.050781 131.789062 116.992188 132.503906 C 116.929688 133.21875 116.8125 133.949219 116.660156 134.675781 C 116.519531 135.421875 116.335938 136.089844 116.140625 136.898438 C 116.097656 137.101562 116.050781 137.242188 116.011719 137.496094 C 115.976562 137.734375 115.941406 137.972656 115.929688 138.191406 C 115.894531 138.640625 115.914062 139.097656 115.976562 139.539062 C 116.09375 140.429688 116.414062 141.257812 116.699219 141.957031 C 116.835938 142.316406 116.953125 142.613281 116.996094 142.890625 C 117.066406 143.277344 117.117188 143.609375 117.160156 143.96875 C 117.230469 144.675781 117.214844 145.375 117.128906 146.101562 C 117.046875 146.824219 116.910156 147.5625 116.746094 148.300781 L 116.492188 149.410156 L 116.425781 149.691406 L 116.359375 150 L 116.234375 150.566406 C 116.148438 150.929688 116.089844 151.328125 116.035156 151.742188 C 115.980469 152.144531 115.925781 152.546875 115.902344 152.941406 C 115.832031 153.734375 115.824219 154.523438 115.832031 155.320312 C 115.863281 156.898438 116.03125 158.464844 116.296875 160.007812 C 116.566406 161.527344 116.914062 163.019531 117.398438 164.503906 L 117.800781 176.4375 C 117.867188 178.425781 117.882812 180.429688 117.929688 182.429688 L 118.042969 188.425781 L 118.160156 182.429688 C 118.1875 180.425781 118.25 178.429688 118.261719 176.425781 L 118.3125 164.425781 L 118.3125 164.367188 L 118.292969 164.285156 C 117.878906 162.851562 117.582031 161.339844 117.378906 159.839844 C 117.175781 158.335938 117.074219 156.820312 117.101562 155.3125 C 117.125 154.566406 117.160156 153.8125 117.257812 153.074219 C 117.285156 152.699219 117.351562 152.339844 117.417969 151.980469 C 117.46875 151.628906 117.542969 151.265625 117.644531 150.886719 L 117.785156 150.324219 L 117.851562 150.070312 L 117.933594 149.785156 L 118.242188 148.65625 C 118.433594 147.894531 118.613281 147.121094 118.742188 146.316406 C 118.863281 145.515625 118.917969 144.667969 118.859375 143.832031 C 118.835938 143.429688 118.78125 142.992188 118.730469 142.621094 C 118.714844 142.492188 118.679688 142.382812 118.652344 142.265625 C 120.046875 142.964844 122.140625 144.125 124.171875 145.636719 C 127.335938 147.988281 128.007812 154.167969 128.019531 154.261719 L 129.660156 166.855469 L 131.003906 181.855469 L 138.324219 186.820312 L 138.835938 195.230469 L 140.132812 200.941406 Z M 61.273438 200.941406 L 61.730469 200.09375 L 63.65625 196.617188 L 67.621094 189.683594 L 67.914062 189.160156 L 67.839844 188.726562 L 65.25 174.429688 L 66.425781 162.613281 L 63.960938 174.359375 L 63.953125 174.414062 L 63.960938 174.539062 L 64.96875 188.492188 L 60.523438 194.632812 L 58.203125 197.929688 L 57.054688 199.617188 C 56.859375 199.929688 56.695312 200.160156 56.46875 200.539062 L 56.230469 200.941406 L 31.15625 200.941406 L 36.605469 194.640625 L 38.511719 180.992188 L 41.265625 177.703125 L 42.355469 176.007812 L 44.40625 187.828125 C 44.40625 187.828125 44.808594 168.820312 44.808594 166.109375 L 44.808594 156.132812 L 50.648438 155.304688 L 53.648438 154.5 L 57.421875 153.492188 L 64.925781 154.84375 L 84.703125 156.261719 L 94.140625 156.261719 L 95.261719 156.820312 L 95.261719 173.078125 L 96.425781 188.558594 C 96.425781 188.558594 98.554688 189.140625 103.40625 194.167969 C 106.273438 197.144531 109.878906 199.507812 112.355469 200.941406 Z M 40.214844 132.222656 C 40.375 130.792969 40.925781 125.941406 41.488281 120.71875 L 46.957031 130.269531 L 44.21875 140.605469 L 46.671875 150.636719 L 50.054688 153.058594 L 44.808594 153.726562 L 44.808594 150.324219 Z M 42.117188 88.976562 C 41.882812 85.714844 42.46875 85.285156 43.351562 84.644531 C 43.734375 84.371094 44.203125 84.027344 44.644531 83.523438 C 45.234375 82.851562 46.808594 81.917969 48.214844 81.179688 L 49.097656 85.003906 L 49.097656 96.222656 C 49.070312 98.148438 48.914062 107.832031 49.113281 109.238281 L 52.199219 84.65625 L 50.0625 75.367188 L 50.0625 59.003906 L 51.039062 51.75 C 51.449219 51.515625 52.433594 51.148438 54.375 51.34375 C 56.121094 51.515625 59.648438 51.933594 62.96875 52.335938 L 65.972656 59.667969 C 65.972656 59.667969 67.378906 64.765625 67.621094 66.636719 C 67.886719 68.6875 67.144531 76.394531 67.144531 76.394531 L 65.65625 92.921875 L 65.589844 93.535156 C 65.589844 93.535156 65.59375 93.535156 65.601562 93.535156 L 64.917969 101.113281 L 64.902344 101.28125 L 64.933594 101.410156 L 67.292969 111.027344 L 65.316406 120.390625 L 65.304688 120.460938 L 65.304688 120.511719 L 66.851562 136.929688 L 66.144531 120.53125 L 68.625 111.171875 L 68.660156 111.042969 L 68.628906 110.875 L 66.769531 101.191406 L 67.859375 93.453125 C 68.488281 93.464844 69.269531 93.484375 70.242188 93.535156 C 73.925781 93.730469 77.613281 92.183594 77.613281 92.183594 L 81.101562 96.25 L 77.804688 109.792969 L 80.132812 118.886719 L 82.652344 142.304688 L 83.601562 153.851562 L 65.277344 152.550781 L 57.328125 151.113281 L 56.910156 151.226562 L 55.5 147.96875 L 53.5625 139.078125 L 52.207031 130.457031 L 47.324219 124.664062 L 42.171875 115.671875 L 42.007812 115.761719 C 42.5 110.988281 42.890625 106.710938 42.890625 105.34375 C 42.890625 101.75 42.503906 94.390625 42.117188 88.976562 Z M 100.695312 116.566406 C 100.695312 116.566406 101.078125 102.050781 100.886719 90.054688 C 100.695312 78.058594 101.273438 75.539062 101.273438 75.539062 C 101.273438 75.539062 101.21875 73 101.167969 70.128906 L 102.070312 69.375 C 102.636719 68.902344 105.03125 67.289062 106.355469 68 C 108.234375 69.007812 110.65625 69.796875 111.960938 70.191406 L 114.632812 83.75 L 115.234375 93.148438 L 115.84375 83.667969 L 115.839844 83.589844 L 114.890625 69.511719 C 115.40625 68.976562 116.226562 68.261719 117.148438 67.761719 L 118.664062 81.097656 L 118.664062 93.074219 L 116.902344 101.445312 L 116.925781 101.578125 C 116.929688 101.597656 117.230469 103.898438 116.917969 108.386719 C 116.800781 110.109375 116.910156 110.734375 117.183594 111.078125 C 117.074219 111.457031 116.882812 112.050781 116.628906 112.851562 C 116.148438 114.367188 115.910156 115.125 116.613281 115.496094 C 116.699219 115.542969 116.785156 115.574219 116.867188 115.589844 C 116.800781 115.839844 116.71875 116.140625 116.625 116.484375 C 116.328125 117.539062 116.082031 118.046875 115.933594 118.292969 C 115.917969 118.265625 115.902344 118.242188 115.890625 118.21875 C 115.765625 118.050781 115.40625 117.523438 114.808594 117.746094 C 114.148438 117.992188 114.15625 118.058594 114.53125 121.425781 L 115.207031 127.472656 L 109.472656 128.5 L 103.875 126.441406 L 103.640625 126.355469 L 103.386719 126.359375 L 102.917969 126.378906 L 102.484375 126.410156 C 102.191406 126.429688 101.914062 126.464844 101.628906 126.507812 C 101.054688 126.59375 100.484375 126.710938 99.90625 126.882812 C 99.78125 126.917969 99.660156 126.96875 99.53125 127.011719 C 99.921875 120.769531 100.695312 116.566406 100.695312 116.566406 Z M 118.832031 67.21875 C 121.429688 67.039062 124.683594 67.929688 124.714844 67.933594 L 126.789062 68.511719 L 131.527344 72.832031 L 131.527344 106.3125 L 132.496094 117.726562 L 137.542969 122.761719 L 137.542969 129.535156 L 137.515625 131.65625 C 137.515625 131.65625 135.964844 151.246094 135.964844 152.046875 L 137.796875 163.738281 L 137.796875 178.363281 L 138.136719 183.886719 L 133.222656 180.554688 L 131.972656 166.601562 L 130.335938 153.992188 C 130.304688 153.699219 129.550781 146.742188 125.566406 143.777344 C 125.03125 143.378906 124.492188 143.007812 123.964844 142.65625 L 123.964844 139.210938 L 122.800781 132.917969 C 122.800781 132.917969 117.746094 127.332031 117.734375 127.324219 C 117.679688 127.296875 117.636719 127.265625 117.480469 127.207031 L 117.214844 127.113281 L 116.882812 127.167969 L 116.734375 127.199219 L 116.074219 121.253906 C 116.023438 120.816406 115.976562 120.382812 115.933594 120 C 115.984375 120 116.066406 119.996094 116.140625 119.988281 C 116.96875 119.847656 117.542969 118.953125 118.117188 116.902344 C 118.820312 114.386719 118.914062 113.65625 118.214844 113.300781 C 118.183594 113.285156 118.160156 113.269531 118.128906 113.257812 C 118.992188 110.535156 118.984375 110.535156 118.632812 110.148438 C 118.597656 110.109375 118.53125 110.046875 118.4375 109.992188 C 118.417969 109.757812 118.414062 109.308594 118.464844 108.496094 C 118.753906 104.398438 118.542969 102.082031 118.480469 101.507812 L 120.199219 93.308594 L 120.214844 81.054688 L 118.652344 67.246094 C 118.710938 67.238281 118.769531 67.21875 118.832031 67.21875 Z M 155.511719 70.074219 L 156.726562 61.832031 L 156.742188 50.574219 L 156.742188 50.265625 L 156.625 49.984375 C 156.007812 48.492188 155.511719 45.984375 156.226562 45.34375 C 157.523438 44.175781 160.417969 43.546875 161.417969 43.398438 L 161.914062 43.332031 L 165.992188 39.433594 L 168.769531 40.625 L 170.902344 50.691406 L 173.226562 60.441406 L 169.34375 71.796875 L 169.34375 97.765625 L 170.328125 121.382812 L 164.878906 120.164062 L 162.011719 119.527344 L 161.292969 119.367188 C 161.042969 119.316406 160.851562 119.257812 160.492188 119.21875 C 159.917969 119.121094 159.425781 119.140625 158.933594 119.175781 L 157.324219 104.183594 L 156.160156 89.859375 L 154.609375 74.957031 Z M 341.308594 194.804688 L 334.933594 181.316406 L 325.25 170.300781 L 320.375 159.074219 L 316.945312 140.25 L 317.328125 121.757812 L 320.40625 105.433594 L 320.429688 105.148438 C 320.429688 104.960938 320.425781 100.527344 319.835938 96.960938 C 319.324219 93.929688 317.769531 90.582031 317.183594 89.394531 L 318.742188 77.132812 L 314.488281 70.203125 L 307.753906 67.789062 L 307.230469 64.675781 L 305.964844 55.863281 L 302.175781 53.34375 L 293.867188 52.332031 L 284.578125 51.148438 L 276.117188 51.933594 L 270.363281 52.113281 L 265.175781 49.425781 L 258.621094 49.214844 L 249.707031 51.097656 L 248.597656 47.765625 L 248.507812 47.5625 C 248.5 47.539062 247.511719 45.566406 245.394531 41.535156 C 243.117188 37.203125 238.542969 33.800781 238.34375 33.65625 L 232.867188 31.082031 L 224.929688 23.753906 L 215.539062 22.503906 L 200.433594 23.875 L 184.734375 26.578125 L 177.660156 26.578125 L 171.394531 32.414062 L 167.886719 36.878906 L 165.332031 35.785156 L 160.476562 40.414062 C 159.199219 40.648438 156.011719 41.371094 154.15625 43.035156 C 151.738281 45.203125 153.097656 49.46875 153.640625 50.875 L 153.640625 61.492188 L 152.929688 66.300781 L 149.460938 65.503906 L 141.144531 63.960938 C 140.820312 63.894531 133.246094 62.382812 129.417969 61.785156 C 128.960938 61.714844 128.558594 61.660156 128.226562 61.617188 C 126.605469 61.414062 125.570312 62.015625 124.992188 62.550781 C 124.367188 63.136719 124.015625 63.875 123.820312 64.554688 C 122.445312 64.289062 120.449219 64.007812 118.621094 64.128906 C 116.050781 64.296875 113.878906 66.117188 112.804688 67.207031 C 111.597656 66.847656 109.429688 66.136719 107.824219 65.273438 C 106.058594 64.328125 104.125 64.753906 102.625 65.425781 L 102.625 60.054688 L 101.464844 54.324219 L 96.625 52.152344 L 89.445312 51.558594 L 77.296875 49.996094 L 70.894531 50.1875 C 69.539062 50.015625 58.382812 48.628906 54.683594 48.257812 C 50.125 47.804688 48.570312 49.699219 48.304688 50.082031 L 48.09375 50.386719 L 46.972656 58.691406 L 46.957031 75.71875 L 47.503906 78.070312 C 46.058594 78.78125 43.453125 80.179688 42.308594 81.488281 C 42.101562 81.726562 41.835938 81.917969 41.53125 82.140625 C 39.957031 83.273438 38.6875 84.59375 39.019531 89.199219 C 39.390625 94.425781 39.789062 101.855469 39.789062 105.34375 C 39.789062 108.027344 38.019531 124.125 37.085938 132.257812 L 37.039062 132.648438 L 41.707031 150.925781 L 41.707031 166.109375 C 41.707031 166.167969 41.792969 168.140625 41.96875 170.871094 L 39.046875 175.417969 L 35.636719 179.097656 L 33.664062 193.3125 L 24.375 204.042969 L 350.828125 204.042969 L 341.308594 194.804688 " fill-opacity="1" fill-rule="nonzero"/></g></svg>